<?xml version="1.0" encoding="UTF-8" standalone="no"?>
<!-- Created with Inkscape (http://www.inkscape.org/) -->

<svg
   xmlns:dc="http://purl.org/dc/elements/1.1/"
   xmlns:cc="http://creativecommons.org/ns#"
   xmlns:rdf="http://www.w3.org/1999/02/22-rdf-syntax-ns#"
   xmlns:svg="http://www.w3.org/2000/svg"
   xmlns="http://www.w3.org/2000/svg"
   xmlns:sodipodi="http://sodipodi.sourceforge.net/DTD/sodipodi-0.dtd"
   xmlns:inkscape="http://www.inkscape.org/namespaces/inkscape"
   width="1024pt"
   height="1024pt"
   viewBox="0 0 1280 1280"
   id="svg2"
   version="1.1"
   inkscape:version="0.91 r13725"
   inkscape:export-filename="/Users/genji/Desktop/Icon.png"
   inkscape:export-xdpi="72"
   inkscape:export-ydpi="72"
   sodipodi:docname="Icon.svg">
  <defs
     id="defs4" />
  <sodipodi:namedview
     id="base"
     pagecolor="#ffffff"
     bordercolor="#666666"
     borderopacity="1.0"
     inkscape:pageopacity="0.0"
     inkscape:pageshadow="2"
     inkscape:zoom="0.43203125"
     inkscape:cx="541.62749"
     inkscape:cy="640"
     inkscape:document-units="px"
     inkscape:current-layer="layer1"
     showgrid="false"
     units="pt"
     inkscape:showpageshadow="false"
     inkscape:window-width="1255"
     inkscape:window-height="755"
     inkscape:window-x="25"
     inkscape:window-y="0"
     inkscape:window-maximized="1" />
  <metadata
     id="metadata7">
    <rdf:RDF>
      <cc:Work
         rdf:about="">
        <dc:format>image/svg+xml</dc:format>
        <dc:type
           rdf:resource="http://purl.org/dc/dcmitype/StillImage" />
        <dc:title />
      </cc:Work>
    </rdf:RDF>
  </metadata>
  <g
     inkscape:label="Layer 1"
     inkscape:groupmode="layer"
     id="layer1"
     transform="translate(0,227.6378)">
    <text
       xml:space="preserve"
       style="font-style:normal;font-variant:normal;font-weight:normal;font-stretch:normal;font-size:49.09298325px;line-height:125%;font-family:Serif;-inkscape-font-specification:Serif;letter-spacing:0px;word-spacing:0px;fill:#ff0000;fill-opacity:1;stroke:none;stroke-width:1px;stroke-linecap:butt;stroke-linejoin:miter;stroke-opacity:1"
       x="5.0659533"
       y="1048.6146"
       id="text3338"
       sodipodi:linespacing="125%"><tspan
         sodipodi:role="line"
         id="tspan3340"
         x="5.0659533"
         y="1048.6146" /></text>
    <g
       style="font-style:normal;font-variant:normal;font-weight:normal;font-stretch:normal;font-size:22px;line-height:125%;font-family:Serif;-inkscape-font-specification:Serif;letter-spacing:0px;word-spacing:0px;fill:#f10000;fill-opacity:1;stroke:none;stroke-width:1px;stroke-linecap:butt;stroke-linejoin:miter;stroke-opacity:1"
       id="text4142" />
    <g
       style="font-style:normal;font-variant:normal;font-weight:normal;font-stretch:normal;font-size:22px;line-height:125%;font-family:Serif;-inkscape-font-specification:Serif;letter-spacing:0px;word-spacing:0px;fill:#ff0000;fill-opacity:1;stroke:none;stroke-width:1px;stroke-linecap:butt;stroke-linejoin:miter;stroke-opacity:1"
       id="text4139"
       transform="matrix(1.1753444,0,0,1.1753444,-56.110222,-128.41576)" />
    <path
       style="opacity:1;fill:#000000;fill-opacity:1;fill-rule:nonzero;stroke:none;stroke-width:200;stroke-linecap:butt;stroke-linejoin:miter;stroke-miterlimit:4;stroke-dasharray:none;stroke-opacity:1"
       d="m 224,-227.63783 c -124.096,0 -224,99.904 -224,224 L 0,828.3622 c 0,124.096 99.904,224 224,224 l 832,0 c 124.096,0 224,-99.904 224,-224 l 0,-832.00003 c 0,-124.096 -99.904,-224 -224,-224 l -832,0 z m 420.9551,159.64258 c 65.1242,0 129.3571,14.24373 191.9531,42.31836 C 899.95,1.91539 953.1267,39.5065 995.5586,86.93053 a 23.148789,23.148789 0 0 1 0.0898,0.10156 c 82.4723,93.27226 124.7109,201.02578 124.7109,319.66797 0,132.79716 -47.4334,248.76401 -140.416,343.22266 C 886.9575,844.3846 772.4944,892.7196 641.416,892.7196 c -130.5981,0 -245.4017,-48.0417 -339.7695,-141.91798 a 23.148789,23.148789 0 0 1 -0.043,-0.043 C 207.6978,656.8529 159.6426,542.25327 159.6426,411.65514 c 0,-132.80523 47.7521,-247.76528 141.3417,-339.89844 0.005,-0.0049 0.0108,-0.0088 0.0157,-0.01367 C 394.5871,-20.8512 510.8373,-67.99525 644.9551,-67.99525 Z M 642.832,34.20983 c -106.3845,0 -194.3608,36.47336 -268.8008,111.35742 l -0.01,0.01 c -73.9393,74.85926 -110.0489,163.6126 -110.0489,271.03125 0,89.04409 30.0925,168.61248 92.1895,241.95898 a 23.148789,23.148789 0 0 1 0.004,0.006 c 73.7125,87.1151 170.1083,129.81839 295.8672,129.81839 46.0159,0 92.3882,-10.4485 139.7871,-31.91214 a 23.148789,23.148789 0 0 1 0.0742,-0.0332 c 47.8706,-21.47466 89.1198,-50.54725 124.3281,-87.53125 65.7083,-69.7323 98.3926,-157.24165 98.3926,-267.16993 0,-100.50544 -35.8367,-184.97493 -109.9023,-258.14257 a 23.148789,23.148789 0 0 1 -0.0489,-0.0508 C 830.5916,69.92798 744.8615,34.20983 642.832,34.20983 Z M 487.125,179.71959 c 26.5024,0 51.3074,9.25649 69.3066,27.17774 18.4566,17.9234 28.1543,42.90807 28.1543,69.57422 0,24.73249 -11.1066,48.16586 -29.6894,66.16797 -18.6466,18.064 -42.5917,28.46289 -67.7715,28.46289 -25.046,0 -48.7639,-11.11989 -66.4297,-29.96289 a 23.148789,23.148789 0 0 0 0,-0.002 c -17.5285,-18.6972 -27.4922,-42.50539 -27.4922,-67.49609 0,-24.9253 10.1705,-48.58425 28.1562,-66.04297 17.7756,-17.70585 41.1705,-27.87891 65.7657,-27.87891 z m 290.8886,0 c 25.7929,0 50.1641,10.43824 67.7383,29.1543 17.6085,18.29759 26.8926,42.87994 26.8926,69.01367 0,24.66003 -10.3121,48.0988 -28.291,65.47852 a 23.148789,23.148789 0 0 1 -0.2949,0.2793 c -18.0944,16.8882 -41.7914,26.04101 -66.752,26.04101 -25.328,0 -49.3518,-10.03724 -67.3262,-28.01172 a 23.148789,23.148789 0 0 1 -0.2753,-0.27929 c -17.5235,-18.12811 -27.0293,-42.26093 -27.0293,-67.75391 0,-24.98657 10.2147,-48.70475 28.2832,-66.17578 18.2918,-17.70173 42.0641,-27.7461 67.0546,-27.7461 z m 129.0743,237.81055 a 23.148789,23.148789 0 0 1 23.5136,25.05274 c -6.9558,83.97185 -36.5447,153.80616 -88.8828,205.63085 -51.9166,51.40291 -119.8935,77.47461 -198.8867,77.47461 -81.5951,0 -151.3047,-25.58598 -204.3027,-76.52539 a 23.148789,23.148789 0 0 1 -0.0821,-0.0781 c -52.5,-50.95611 -82.3012,-120.8353 -89.7441,-205.68164 a 23.148789,23.148789 0 0 1 23.0586,-25.16992 l 32.5566,0 a 23.148789,23.148789 0 0 1 22.1993,16.59375 c 17.9281,60.73173 44.8923,104.05523 79.9433,132.41015 35.0509,28.35492 78.8955,42.79883 134.9551,42.79883 52.8843,0 96.2453,-15.41848 133.7344,-46.94336 a 23.148789,23.148789 0 0 1 0.0976,-0.084 c 37.9648,-31.56654 61.89,-72.56991 72.7989,-126.24024 a 23.148789,23.148789 0 0 1 22.2382,-18.53125 l 36.8028,-0.70703 z"
       id="rect4140"
       inkscape:connector-curvature="0" />
    <g
       style="font-style:normal;font-variant:normal;font-weight:normal;font-stretch:normal;font-size:22px;line-height:125%;font-family:Serif;-inkscape-font-specification:Serif;letter-spacing:0px;word-spacing:0px;fill:#00ff00;fill-opacity:1;stroke:none;stroke-width:1px;stroke-linecap:butt;stroke-linejoin:miter;stroke-opacity:1"
       id="text4143"
       transform="translate(-17.382619,0.41979555)" />
  </g>
</svg>
